<svg xmlns="http://www.w3.org/2000/svg" height="100" width="100">
  <path d="M81.843 10.48c-2.578-.108-4.94.858-6.659 2.792L57.357 32.817 16.655 27.34c-.966-.107-2.04.215-2.792.967l-3.437 3.436c-.859.86-.644 2.255.43 2.792l15.465 7.733-2.148 2.148a2.722 2.722 0 000 3.866 2.722 2.722 0 003.866 0l3.436-3.437L42 50 26.965 67.076l-10.31-1.29c-1.074-.214-2.148.108-3.007.86l-.537.537c-.751.752-.644 2.148.322 2.685l10.525 6.443 6.444 10.525c.644.966 1.933 1.181 2.684.322l.537-.537c.752-.752 1.074-1.933.86-3.007l-1.29-10.31L50.27 58.27l5.048 10.31-3.437 3.437a2.722 2.722 0 000 3.866 2.722 2.722 0 003.866 0l2.148-2.148 7.84 15.68c.537 1.073 1.933 1.288 2.792.429l3.437-3.437c.751-.751 1.074-1.718.966-2.792l-5.477-40.702 19.546-17.827c1.825-1.718 2.9-4.189 2.792-6.659-.107-4.295-3.544-7.732-7.947-7.947z" fill="#fff"/>
</svg>
