<svg xmlns="http://www.w3.org/2000/svg" width="100" height="100">
  <g fill="#fff">
    <path d="M76.07 41.578h13.98v16.035H76.07z"/>
    <path d="M76.582 60.072a3.317 3.317 0 01-3.304-3.307v-14.34c0-1.82 1.49-3.308 3.304-3.308h6.478v-3.5H58.94c-1.81 0-3.29 1.48-3.29 3.288v21.383a3.298 3.298 0 003.29 3.287h24.12v-3.5h-6.478zM45 40H32.668s-.803-.988-1.785-2.192c-.98-1.206-3.26-2.193-5.07-2.193h-8.77v3.5h6.652c1.82 0 3.308 1.49 3.308 3.307v14.34c0 1.82-1.49 3.308-3.308 3.308h-6.652v3.5h8.77c1.812 0 4.092-.988 5.07-2.193l1.785-2.192h12.335c1.81 0 3.29-1.48 3.29-3.29v-3.013V43.287A3.3 3.3 0 0045 40zm-2.467 13.295h-7.95v-7.4h7.95z"/>
    <path d="M10.05 41.578h13.982v16.035H10.05z"/>
  </g>
</svg>
