<svg xmlns="http://www.w3.org/2000/svg" width="128" height="128">
  <circle cx="64" cy="36" r="4" fill="#fff"/>
  <circle cx="76" cy="36" r="4" fill="#fff"/>
  <circle cx="88" cy="36" r="4" fill="#fff"/>
  <circle cx="100" cy="36" r="4" fill="#fff"/>
  <circle cx="52" cy="36" r="4" fill="#fff"/>
  <circle cx="40" cy="36" r="4" fill="#fff"/>
  <circle cx="28" cy="36" r="4" fill="#fff"/>
  <ellipse cx="64.5" cy="12.5" rx="3.96" ry="3.5" fill="#fff"/>
  <ellipse cx="76.379997" cy="12.5" rx="3.96" ry="3.5" fill="#fff"/>
  <ellipse cx="52.619999" cy="12.5" rx="3.96" ry="3.5" fill="#fff"/>
  <circle cx="70" cy="24" r="4" fill="#fff"/>
  <circle cx="82" cy="24" r="4" fill="#fff"/>
  <circle cx="94" cy="24" r="4" fill="#fff"/>
  <circle cx="58" cy="24" r="4" fill="#fff"/>
  <circle cx="46" cy="24" r="4" fill="#fff"/>
  <circle cx="34" cy="24" r="4" fill="#fff"/>
  <circle cx="64" cy="116" r="4" fill="#fff"/>
  <circle cx="76" cy="116" r="4" fill="#fff"/>
  <circle cx="52" cy="116" r="4" fill="#fff"/>
  <circle cx="64" cy="92" r="4" fill="#fff"/>
  <circle cx="76" cy="92" r="4" fill="#fff"/>
  <circle cx="88" cy="92" r="4" fill="#fff"/>
  <circle cx="100" cy="92" r="4" fill="#fff"/>
  <circle cx="52" cy="92" r="4" fill="#fff"/>
  <circle cx="40" cy="92" r="4" fill="#fff"/>
  <circle cx="28" cy="92" r="4" fill="#fff"/>
  <circle cx="70" cy="104" r="4" fill="#fff"/>
  <circle cx="82" cy="104" r="4" fill="#fff"/>
  <circle cx="94" cy="104" r="4" fill="#fff"/>
  <circle cx="58" cy="104" r="4" fill="#fff"/>
  <circle cx="46" cy="104" r="4" fill="#fff"/>
  <circle cx="34" cy="104" r="4" fill="#fff"/>
  <path d="M117.87 64a4 4 0 00-7-1.56 13 13 0 01-7.46 1.56c-3-.31-4.73-1.69-6.71-3.28-2.15-1.72-4.8-3.85-8.85-3.72-6.34.23-10 5.83-12.7 9.92a29.45 29.45 0 01-2.78 3.8c-1-1.36-2.28-5.11-3.06-7.46-2.07-6.21-4.2-12.63-9.89-13.23-4.87-.51-7.69 3.76-10.16 7.53-2 3.08-4.12 6.27-6.56 6.45-1 .09-2-.71-4-2.52C36.11 59.18 32.62 56 27 56c-6.78 0-10.58 1.46-15.67 6a4.0160802 4.0160802 0 005.34 6c3.44-3.08 5.21-4 10.33-4 2.41 0 4 1.29 6.29 3.41s5.42 4.92 10 4.58c6.36-.48 10-6 12.64-10a29.1 29.1 0 012.68-3.68c1.05 1.37 2.36 5.3 3.1 7.52C63.78 72 65.92 78.4 71.59 79a7.56 7.56 0 00.76 0c4.42 0 7.1-4.08 9.48-7.7 1.92-2.92 4.1-6.23 6.31-6.31.94-.05 1.73.51 3.55 2 2.34 1.88 5.54 4.45 10.89 5 6.88.72 12.84-2.43 14.36-4.19a4.15 4.15 0 00.93-3.8z" fill="#fff"/>
</svg>
