<svg xmlns="http://www.w3.org/2000/svg" height="100" width="100">
  <path d="M69.247 65.494a3.432 3.432 0 00-1.91-.711l-4.95-5.2v-2.71l2.846-1.388a21.75 21.75 0 0012.22-19.346l.072-7.725a12.563 12.563 0 014.934-9.424l5.093-3.831-5.595-1.173-1.14-1.033c-5.914-5.36-15.41-2.416-17.258 5.349l-1.908 8.02-36.183 27.574c4.678 4.386 16.73 1.472 32.311-7.828a9.543 9.543 0 004.312-10.75l2.15-1.64a12.094 12.094 0 01-5.153 14.583c-8.36 4.99-15.74 8.175-21.743 9.474l-.022.025-24.868 20.534v.063h5.766l37.534-18.251-2.515 8.5h.003L54.137 70c-20.916 6.735-36.861 13.896-41.682 16.138v3.529c1.468-.705 17.624-8.382 40.14-15.809a3.437 3.437 0 005.912-1.896 358.442 358.442 0 015.832-1.76 3.438 3.438 0 006.243-1.763 300.896 300.896 0 0117.047-4.119V61.06a303.773 303.773 0 00-18.382 4.435zm6.2-49.497a1.875 1.875 0 012.179-1.518c.674.12 1.2.586 1.424 1.182l-3.32 1.704a1.882 1.882 0 01-.283-1.368zM57.417 68.96a3.44 3.44 0 00-1.39-.772l2.84-9.6.966-.47v2.486l5.657 5.942a360.412 360.412 0 00-8.074 2.414z" fill="#fff"/>
</svg>
