<svg xmlns="http://www.w3.org/2000/svg" height="100" width="100">
  <g fill="#fff">
    <path d="M74.39 81.161c-.06-.213-2.526-1.767-2.754-1.896-.227-.13-.477-.159-.912-.22-.431-.061-.59-.32-1.152-.54-.56-.218-1.32-.825-1.691-1.023-.372-.197-.69-.434-1.191-.644-.502-.213-.585-.495-.867-.67-.279-.173-1.06-.642-1.258-.772a.634.634 0 01-.273-.502c.008-.144-.052-.896-.114-.956-.062-.06-.226-.075-.226-.075s-.662-1.964-.404-2.33c.15-.209-.023-1.494-.13-1.6-.105-.107-.491-.342-.673-.561-.183-.221-.72-2.534-.82-2.914-.097-.378-.25-1.471-.326-1.73-.075-.258-.312-.439-.401-.788-.09-.35-.1-.781-.296-1.055-.197-.273-3.09-1.061-3.09-1.061s.103-.608.162-1.109c.012-.109.107-.076.084-.234-.02-.13-.13-.166-.25-.26.075-.088.12-.272.104-.333-.053-.219-.4-.666-.933-.712-.53-.045-4.226-.47-4.71-.675-.486-.205-1.434-.44-1.632-.357-.196.085-1.736 7.268-1.736 7.268l-2.648 2.185-2.102 1.73s-.269.207-1.798 1.311c-.259.188-.557.474-.933.75-.92.684-2.111 1.497-2.897 1.936-1.18.66-2.113 1.603-2.975 2.086-.863.485-1.453.762-1.555.833-.463.335-.545.454-1.653 1.292-.42.317-.89.708-1.488 1.123-.286.198-.596.446-.957.6-.239.1-.554.12-.758.257-.353.236-.678.53-.986.752-.38.272-.712.435-1.016.644-.733.501-1.227.886-1.237.91-.052.114-.152.986.994 2.102 1.145 1.114 1.04.941 1.411 1.349.372.41 1.972 2.307 2.276 2.321.303.016 1.001-.782 1.555-1.228.555-.448.926-.814 2.125-1.638.487-.336 1.08-.647 1.597-1.002.693-.474 1.302-.973 1.832-1.336.62-.422 1.11-.673 1.146-.699.743-.538 1.732-.74 3.088-1.457.836-.44 1.49-.935 1.623-1.053.35-.31 1.503-.957 2.019-1.374.516-.417 1.122-1.077 1.183-1.047.061.03-.159 1.7-.159 1.7s-1.138.675-1.889 1.069c-.75.394-1.252.622-1.79.994-.54.372-2.095 1.002-2.322 1.138-.228.135-.395.418-.523.516-.13.099-.888.524-.888.524s-.243.25-.372.477c-.128.227-.166.705-.166.705s-.425.146-.524.318c-.098.176-.114.67-.114.67s-.27.25-.295.622c-.031.47.137.902.106 1.01-.03.105-.19.105-.25.256-.061.153-.031.979-.015 1.062.015.083 2.131 1.016 2.131 1.016s.924.382 1.86.67c.12.036.242-.01.361.028.771.233 1.466.43 1.55.411.198-.046 2.186-1.486 2.186-1.486l.151.424s-.402.607-.365.69c.054.119 1.434.28 2.588.304 1.153.022 2.783-.031 3.511.007.73.039 1.518.122 1.747.03.227-.09.431-.332.477-.477.045-.144-.067-.22-.067-.22s.149-.211.182-.396c.044-.256-.167-.5-.167-.63 0-.128.19-.33.158-.576-.03-.242-.364-.57-.387-.69-.021-.121-.052-1.54-.021-1.728.029-.191.152-.365.174-.593.022-.228.022-1.562.09-1.698.035-.072.443-.348.843-.623.385-.266.763-.535.857-.47.076.052.167.615.37 1.29.137.448.366.907.502 1.373.168.576.227 1.14.22 1.41-.022.819-.213 1.01-.213 1.252s.031.676.138.758c.106.083.166.04.219.113.052.077.1.692.265.813.168.121.91.099 2.255.054 1.342-.047 1.873-.168 2.58-.259.252-.033.608-.19 1.008-.296.276-.075.58-.093.842-.16.41-.1.738-.233.85-.272.289-.097.302-.242.386-.258.084-.016.19.052.335.007.302-.09 1.728-.566 1.873-.75.115-.143-.015-.458-.105-.887-.059-.268-.095-.568-.146-.888-.062-.405-.181-.816-.234-1.106-.052-.28-.043-.448-.03-.456.052-.03.33.239.865.515.422.222.947.47 1.487.759.349.186.678.4 1.016.576.337.18.711.305.987.448.523.271.736.485.857.485.12 0 .483-.437.956-.827.398-.328.79-.608.85-.705.127-.212.258-1.13.378-1.744.116-.615.535-1.684.475-1.897zM59.763 35.841c1.195-1.314 2.148-1.87 2.388-3.86.23-1.924-1.194-3.822-1.194-3.822s.059 1.073-.477 2.866c-.479 1.593-1.673 1.632-2.468 3.582-.853 2.086.915 4.896.915 4.896s-.198-2.525.836-3.662zM44.823 19.111c.561 1.736-.053 3.472-.053 3.472s1.709-.535 2.19-2.404c.647-2.518-.434-4.327-1.229-6.197-1.068-2.509-.16-4.165-.16-4.165s-4.06.64-3.15 4.967c.462 2.212 1.815 2.51 2.402 4.327z"/>
    <path d="M33.308 75.076c.1-.062 7.616-4.99 7.827-5.149 0 0-1.273.267-2.6-.318-1.328-.583-2.44-2.866-2.44-2.866s1.857 1.273 2.811 1.486c.955.212 2.016-.053 2.016-.053s-1.75-1.062-1.963-3.661c-.214-2.62 1.273-4.46 1.273-4.46s-.145 1.843.477 3.397c.371.923 1.514 1.958 1.752 1.858.355-.147.109-2.6.478-4.565.318-1.698 1.752-3.29 2.07-3.29.317 0-.372 2.23-.054 3.503.318 1.273.532 2.312.85 2.336.743.053 1.13-1.901 1.433-4.616.426-3.821 1.693-4.295 2.017-8.174.265-3.184-1.061-5.68-.744-5.89.319-.211 2.495 3.236 3.292 5.837.794 2.6 1.22 5.948 1.538 5.943.319-.004 1.883-.996 2.548-3.134 1.01-3.237.426-6.261.584-6.421.159-.159 1.63 1.492 1.963 5.308.266 3.025-.316 5.996-.316 5.996 1.326.477 1.431 2.122 1.257 2.717 1.185.415 2.36-.864 2.257-.503-.278.996 1.074 1.314 2.229 1.076 1.155-.24 1.898-2.76 2.031-2.787.132-.026-.006 2.874-.278 4.138-.585 2.709-2.35 3.584-2.35 3.584.007.014.226 1.572.44 2.07.262.18.608.42.874 1.115.274.715.399 1.87.266 2.335.053.404.49.73.529 1.128.042.398.122 1.113.28 1.512.16.397 2.032 1.472 2.863 1.756.003.001.006.005.01.006 1.506-1.459 3.11-3.958 3.495-7.057.479-3.847.026-4.51.08-7.642.034-1.964.718-4.881.718-4.881s-2.31 2.175-2.866 6.554c-.414 3.246-2.414 5.758-3.576 6.339 2.965-4.854 2.948-10.52 2.381-13.69-.605-3.38-1.545-4.072-3.394-7.8-2.577-5.203-1.605-10.495-1.605-10.495s-1.343 2.087-1.809 3.734c-.33 1.162-.516 2.646-.126 4.553.539 2.627 1.73 3.71 1.832 6.75.103 3.04-2.628 6.078-2.628 6.078s.82-3.542.648-6.59c-.2-3.565-.879-6.99-3.814-10.267-1.814-2.027-3.117-2.572-3.573-4.782-.775-3.761 2.868-6.829 2.8-6.965-.068-.137-2.177.962-3.37 2.106-1.478 1.416-2.197 3.208-2.15 5.702.056 3.221 1.503 7.445 1.503 7.445s-1.656-2.216-2.425-4.895c-.586-2.039-.404-4.48-.07-5.623.776-2.64 3.517-6.427 3.804-10.313.527-7.139-2.71-9.868-2.71-9.868s1.645 4.082-.433 8.343c-1.061 2.182-3.657 4.015-6.09 6.409-2.262 2.226-3.057 4.136-3.108 7.34-.026 1.744.41 3.461 1.367 5.488.956 2.025 2.64 5.008 2.14 8.491-.296 2.06-2.231 4.394-2.231 4.394s.797-3.268.797-4.758c0-1.491-.59-4.4-2.653-7.33-2.35-3.339-2.378-6.83-2.378-6.83s-2.007 2.994.302 8.089c.952 2.101 1.513 4.22 1.035 7.402-.458 3.049-2.07 4.38-3.423 6.927-1.15 2.166-1.179 3.64-1.14 4.163-.066-.708-.15-3.123 1.378-5.915.862-1.573 1.543-2.925 1.593-4.616.079-2.708-.987-4.644-.987-4.644s-.307 4.78-1.332 6.83c-1.024 2.048-3.483 4.711-4.235 6.897-.75 2.186-1.57 4.917-1.024 8.196.475 2.85 1.275 4.476 2.057 5.517z"/>
  </g>
</svg>
