<svg xmlns="http://www.w3.org/2000/svg" height="100" width="100">
  <g fill="#fff">
    <path d="M67.804 58.674l8.474 11.865 6.237-9.815L90 70.12l-3.904 3.11-3.123-3.917-6.454 10.154-8.166-11.434L60.81 81.75l-7.124-18.57-7.182 27.487-7.762-24.58-5.59 16.435-7.865-12.905-4.908 7.18-10.725-11.76 3.69-3.364 6.473 7.099 5.71-8.352 6.336 10.392 7.054-20.75 7.134 22.59 6.731-25.765L61.62 69.92z"/>
    <g style="line-height:1.25;-inkscape-font-specification:Quicksand">
      <path d="M50.622 18.12q2.76 0 5 1.44 2.24 1.4 3.52 3.92 1.32 2.52 1.32 5.72 0 3.2-1.28 5.76-1.28 2.52-3.52 3.96-2.2 1.4-4.88 1.4-1.92 0-3.64-.76-1.68-.8-2.8-1.92v.24q0 1.04-.68 1.76-.68.68-1.72.68t-1.72-.68q-.68-.68-.68-1.76V12.76q0-1.04.68-1.72.68-.72 1.72-.72t1.72.72q.68.68.68 1.72v8.36q.96-1.2 2.68-2.08 1.72-.92 3.6-.92zm-.6 17.8q2.56 0 4.2-1.92 1.64-1.92 1.64-4.8t-1.64-4.76q-1.6-1.92-4.2-1.92t-4.24 1.92q-1.64 1.88-1.64 4.76t1.64 4.8q1.64 1.92 4.24 1.92z" style="-inkscape-font-specification:'Quicksand Bold';text-align:center" font-weight="700" text-anchor="middle" aria-label="b" font-size="40" font-family="Quicksand"/>
    </g>
  </g>
</svg>
