<svg xmlns="http://www.w3.org/2000/svg" height="100" width="100" fill="none">
  <g fill="#fff">
    <path d="M10.608 77.017a4.002 4.002 0 108.004 0 4.002 4.002 0 00-8.004 0zM25.183 77.016a3.463 3.463 0 006.926 0 17.523 17.523 0 00-17.498-17.498 3.463 3.463 0 000 6.926 10.582 10.582 0 0110.572 10.572z"/>
    <path d="M42.681 80.48a3.463 3.463 0 003.464-3.464A31.57 31.57 0 0014.61 45.48a3.463 3.463 0 100 6.926 24.637 24.637 0 0124.607 24.611 3.463 3.463 0 003.463 3.463z"/>
    <path d="M55.776 80.48h28.49a6.294 6.294 0 006.29-6.288v-49.63a6.294 6.294 0 00-6.29-6.288H17.432a6.294 6.294 0 00-6.285 6.287v10.826a3.463 3.463 0 106.927 0V25.201H83.63v48.352H55.776a3.463 3.463 0 000 6.926z"/>
    <path d="M50.568 66.627h26.136v-34.5H25v9.703l2.394.778a31.631 31.631 0 0122.593 21.269z"/>
  </g>
</svg>
