<svg xmlns="http://www.w3.org/2000/svg" height="100" width="100">
  <g fill="#fff">
    <path d="M81 42.585H36.658c-1.6 0-2.824 1.224-2.824 2.825v4.99h-5.178c-6.59 0-11.956 5.365-11.956 11.955s5.366 11.957 11.956 11.957h5.649c1.789 8.473 9.32 14.78 18.264 14.78h12.52c10.357 0 18.735-8.379 18.735-18.64V45.41c0-1.6-1.224-2.825-2.824-2.825zm-58.651 19.77a6.308 6.308 0 016.307-6.307h5.178v12.615h-5.178a6.308 6.308 0 01-6.307-6.308zM58.311 33.548c0 1.6 1.224 2.824 2.825 2.824 1.6 0 2.824-1.224 2.824-2.824 0-3.672-1.695-5.555-3.013-6.967-1.035-1.13-1.506-1.695-1.506-3.295 0-1.506.565-2.165 1.6-3.295 1.224-1.412 2.919-3.39 2.919-6.967 0-1.6-1.224-2.824-2.824-2.824-1.6 0-2.825 1.224-2.825 2.824 0 1.507-.564 2.071-1.506 3.201-1.224 1.412-3.012 3.39-3.012 7.06 0 3.673 1.694 5.555 3.012 6.968.942 1.13 1.506 1.788 1.506 3.295zM72.527 33.548c0 1.6 1.224 2.824 2.824 2.824 1.6 0 2.825-1.224 2.825-2.824 0-3.672-1.695-5.555-3.013-6.967-1.035-1.13-1.506-1.695-1.506-3.295 0-1.506.565-2.165 1.6-3.295 1.224-1.412 2.919-3.39 2.919-6.967 0-1.6-1.224-2.824-2.825-2.824-1.6 0-2.824 1.224-2.824 2.824 0 1.507-.565 2.071-1.506 3.201-1.224 1.412-3.013 3.39-3.013 7.06 0 3.673 1.695 5.555 3.013 6.968.941 1.13 1.506 1.788 1.506 3.295zM44.096 33.548c0 1.6 1.224 2.824 2.824 2.824 1.6 0 2.824-1.224 2.824-2.824 0-3.672-1.694-5.649-3.012-7.061-1.036-1.13-1.507-1.789-1.507-3.201 0-1.506.565-2.165 1.6-3.295 1.225-1.412 2.92-3.39 2.92-6.967 0-1.6-1.225-2.824-2.825-2.824s-2.824 1.224-2.824 2.824c0 1.507-.565 2.071-1.507 3.201-1.223 1.412-3.012 3.39-3.012 7.06 0 3.578 1.694 5.555 2.918 6.968 1.036 1.13 1.6 1.788 1.6 3.295z"/>
  </g>
</svg>
