<svg xmlns="http://www.w3.org/2000/svg" height="100" width="100" version="1.0">
  <path d="M76.667 33.333C76.667 25.97 70.7 20 63.333 20c-1.565 0-3.047.319-4.443.813C56.514 14.505 50.476 10 43.333 10c-9.205 0-16.666 7.461-16.666 16.667C17.461 26.667 10 34.128 10 43.333 10 52.539 17.461 60 26.667 60h8.336L30 76.667h7.705L33.698 90h6.963l6.006-20h-7.705l2.998-10h15.377l-4.004 13.333h7.705l-4.007 13.334h6.963l6.006-20h-7.705L64.294 60h12.373C84.03 60 90 54.03 90 46.667s-5.97-13.334-13.333-13.334z" fill="#fff"/>
</svg>
