<svg xmlns="http://www.w3.org/2000/svg" height="100" width="100">
  <switch transform="matrix(.95368 0 0 .95368 2.37 2.316)" fill="#fff">
    <g>
      <path d="M36.938 65.065L33 57.753l-3.893 7.313a4.468 4.468 0 00-.607 2.25 4.5 4.5 0 009 0c0-.821-.562-2.251-.562-2.251z"/>
      <path d="M83.216 42.114a12 12 0 01-1.086.864c-.046.032-.094.055-.14.086a11.898 11.898 0 01-4.854 1.916 11.989 11.989 0 001.96-1.105c.405-.283.778-.594 1.135-.917a12.074 12.074 0 001.163-1.199l.006-.006h-.001c.187-.224.369-.451.539-.686C81.119 29.069 71.166 19.591 59 19.591c-7.875 0-14.823 3.973-18.969 10.028a12.025 12.025 0 011.37 3.665v-.001c.005.028.015.055.02.084.35 1.854.242 3.685-.222 5.391 0-.741-.061-1.492-.203-2.247-.09-.476-.209-.939-.351-1.389-.07-.222-.162-.432-.244-.648-.083-.216-.157-.437-.251-.647-.119-.266-.259-.518-.396-.772-.078-.145-.149-.294-.232-.435-.154-.26-.325-.505-.497-.752-.067-.096-.125-.2-.195-.294l-.005.009c-.07-.095-.13-.198-.202-.29a13.902 13.902 0 00-6.622-1.67c-7.107 0-12.962 5.317-13.865 12.199C12.395 42.724 8 48.321 8 54.332 8 60.981 13.373 67 20 67h7.068c.113-1 .368-1.716.741-2.36L33 54.774l5.25 9.923s.437 1.302.643 2.302h22.313L66 57.996 70.848 67H80c6.627 0 12-6.019 12-12.668 0-5.53-3.721-10.806-8.784-12.218z"/>
      <path d="M71.25 71.409L66 61.659l-5.191 9.75a5.96 5.96 0 00-.809 3 6 6 0 1012 0c0-1.094-.75-3-.75-3z"/>
    </g>
  </switch>
</svg>
