<svg xmlns="http://www.w3.org/2000/svg" height="100" width="100">
  <g fill="#fff">
    <path d="M62.92 50c-3.46.999-5.31 4.815-4.045 8.107a6.182 6.182 0 00-4.295 5.883c0 5.287 6.188 8.03 10.079 4.797 2.27 1.872 5.546 1.829 7.805 0a6.163 6.163 0 007.79 0c3.914 3.228 10.078.494 10.078-4.797a6.185 6.185 0 00-4.287-5.883C87.298 54.812 85.479 51.009 82 50c1.45-3.171-.107-7.085-3.485-8.324.773-3.656-1.985-7.421-6.05-7.421-4.065 0-6.846 3.742-6.068 7.421C63.055 42.914 61.46 46.77 62.92 50z"/>
    <path d="M80.42 87.65c-2.097-5.232-3.376-10.547-3.81-15.812-1.026.102-2.744-.237-4.146-1.037-2.048 1.169-3.93 1.031-4.036 1.045-.435 5.265-1.714 10.572-3.811 15.804l-.46 1.145h-3.97V78.582h-1.671v2.148h-3.427v-2.148h-1.671v2.148H49.95v-2.148h-1.672v2.148h-3.477v-2.148H43.13v2.148h-1.588l.2 1.671h1.388v2.365h-1.12l.192 1.672h.928v2.357h-2.333l-3.124-27.02a8.281 8.281 0 00-7.397-7.293V37.079l3.41 3.41 9.544 9.553 4.22-4.22-9.552-9.545-3.033 3.034-4.246-4.246 13.205-13.204.593-.585-4.22-4.22-9.545 9.552 3.034 3.034-4.245 4.245-4.246-4.245-9.544-9.553-4.22 4.22 9.552 9.545 3.034-3.034 4.245 4.245L15.058 48.27l-.594.585 4.22 4.22 9.545-9.552-3.034-3.034 3.41-3.409v17.402a8.281 8.281 0 00-7.396 7.294l-3.125 27.019h-1.68l.467-4.028h-.159V82.4h.427l.2-1.671h-.627v-2.148h-1.671v2.148h-3.268v-2.148h-1.671v11.884h79.395v-1.671H80.88zm-65.38 1.145h-3.267v-2.357h3.268zm0-4.028h-3.267V82.4h3.268zm11.083-21.295h6.636v4.68h-6.636zm7.948 25.323h-9.26v-7.17c0-2.55 2.08-4.622 4.63-4.622 2.549 0 4.63 2.072 4.63 4.621zm14.207 0h-3.476v-2.357h3.476zm0-4.028h-3.476V82.4h3.476zm5.14 4.028H49.95v-2.357h3.468zm0-4.028H49.95V82.4h3.468zm5.098 4.028h-3.427v-2.357h3.427zm0-4.028h-3.427V82.4h3.427z"/>
    <path d="M54.697 33.929a5.293 5.293 0 005.281-5.282 5.288 5.288 0 00-5.281-5.282 5.282 5.282 0 00-5.282 5.282 5.288 5.288 0 005.282 5.282zM53.86 17.965h1.671v3.187H53.86zM47.735 20.502l2.254 2.253-1.182 1.182-2.254-2.254zM44.017 27.808h3.187v1.672h-3.187zM48.807 33.35l1.182 1.183-2.254 2.254-1.182-1.182zM53.86 36.136h1.671v3.188H53.86zM60.584 33.35l2.254 2.254-1.182 1.182-2.254-2.254zM62.188 27.808h3.187v1.672h-3.187zM61.656 20.502l1.182 1.182-2.254 2.254-1.181-1.182zM77.829 25.99H79.5a3.386 3.386 0 013.382-3.383v-1.671c-1.76 0-3.312.904-4.218 2.273a5.053 5.053 0 00-4.218-2.273v1.671a3.386 3.386 0 013.383 3.383zM69.47 14.855h1.671a2.327 2.327 0 012.324-2.324V10.86a3.991 3.991 0 00-3.16 1.553 3.992 3.992 0 00-3.16-1.553v1.671a2.327 2.327 0 012.325 2.324zM82.22 15.613l1.672-.027c-.01-.621.221-1.209.653-1.655a2.308 2.308 0 011.632-.707l-.028-1.672a3.971 3.971 0 00-3.133 1.601 4.072 4.072 0 00-.341-.373 3.934 3.934 0 00-2.844-1.123l.027 1.671c1.269-.051 2.342 1.004 2.362 2.285z"/>
  </g>
</svg>
