<svg xmlns="http://www.w3.org/2000/svg" height="100" width="100">
  <g fill="#fff">
    <path d="M18.682 18.929c-.18-.719.449-1.527 1.167-1.527h26.132c.719 0 1.258.629 1.258 1.347 0 .629-.629 1.168-1.258 1.078h-5.567l-5.748 5.747h11.405c1.437-.09 2.874.45 4.041 1.437.808.629 1.257 1.437 1.706 2.335 2.694 5.208 5.568 10.327 9.25 14.817 1.347 1.616 2.784 3.143 4.4 4.58 1.347 1.167 2.784 2.245 4.4 3.053 1.617.808 3.323 1.527 4.94 2.335 4.13 1.796 8.351 3.412 12.661 4.76.809.269 1.707.359 2.425.897.539.36.988.898.988 1.527v8.441c0 .719-.27 1.437-.808 1.886-.36.36-.898.45-1.437.45H18.233c-1.886-.63-3.682-1.617-5.119-3.054-1.616-1.527-2.604-3.682-2.963-5.837-.09-.988-.09-1.886-.09-2.874V46.318c0-3.053.18-6.196.808-9.16.539-2.245 1.257-4.49 2.515-6.555 1.077-1.796 2.694-3.412 4.67-4.31 1.346-.63 2.783-.809 4.22-.809h8.172l-5.658-5.657H19.85c-.539 0-1.077-.36-1.167-.898zm9.609.898l4.31 4.31 4.31-4.31h-8.62zm-7.903 9.609c-1.527 0-2.963 1.077-3.323 2.514-.808 2.425-1.616 4.94-2.424 7.364-.18.628-.18 1.436.359 1.886.449.449 1.167.449 1.796.449h26.312c.539 0 1.167-.09 1.616-.45.629-.449.808-1.257.719-1.975-.27-2.425-.63-4.94-.988-7.364-.18-1.437-1.527-2.604-2.964-2.424-7.004 0-14.009.09-21.103 0zm36.01 13.11v3.323c.09 3.951.18 7.903.27 11.944 1.436 1.347 3.233 2.335 4.939 3.233 0-1.078-.09-2.245-.09-3.323-.09-1.168 0-2.425-.09-3.592 0-.988 0-1.886-.09-2.874 0-.898 0-1.886-.09-2.784-1.616-1.885-3.322-3.861-4.849-5.926zm6.735 13.83c.09 1.077 0 2.245.09 3.323v1.885c0 .18.18.18.27.18 1.526.539 3.053 1.078 4.67 1.437-.09-.988 0-1.886-.09-2.874-.09-1.077 0-2.155-.09-3.323 0-1.077 0-2.245-.09-3.322-1.796-1.078-3.413-2.335-4.94-3.772.18 2.245.18 4.4.18 6.466zm-45.529-3.502c-1.526.359-2.694 1.616-2.873 3.143a3.822 3.822 0 001.975 3.771c.988.54 2.245.54 3.323.09.988-.449 1.706-1.347 2.065-2.335.45-1.437-.09-3.053-1.257-4.04-.988-.63-2.155-.899-3.233-.63zm24.426 0a3.641 3.641 0 00-2.694 2.514c-.36 1.078-.18 2.335.45 3.233.897 1.347 2.783 1.976 4.31 1.437a3.768 3.768 0 002.334-2.335c.45-1.437 0-3.233-1.257-4.131-.898-.718-2.065-.988-3.143-.718zM69.868 63.74c1.617.359 3.233.718 4.94.987V63.38c-.09-1.077 0-2.155-.09-3.232 0-.988 0-1.976-.09-3.054-1.706-.718-3.323-1.526-4.94-2.335.09 2.964.09 6.017.18 8.98zm6.376-5.927c0 2.424.09 4.849.09 7.184 1.347.27 2.694.449 4.13.628 0-2.065-.089-4.22-.089-6.286-1.437-.449-2.784-.988-4.13-1.526zm5.748 2.155c0 1.796.09 3.502.09 5.298 0 .18 0 .45.09.629 1.077.18 2.154.27 3.232.359 0-1.706-.09-3.502-.09-5.208-1.077-.36-2.155-.719-3.322-1.078zm4.939 1.616v1.437c0 1.168 0 2.245.09 3.413.538.09 1.077.09 1.616.18v-1.258c-.09-1.078 0-2.155-.09-3.233l-1.616-.539zM16.616 74.516h9.789v2.424h13.83v-2.424h50.557v3.053c0 .18-.18.18-.36.18-14.547 1.616-29.184 3.322-43.732 4.849H10.78V76.85h5.747c.09-.719.09-1.527.09-2.335z"/>
  </g>
</svg>
