<svg xmlns="http://www.w3.org/2000/svg" height="100" width="100">
  <g fill="#fff">
    <path d="M89.247 87.985h-18.08c-2.092-8.216-3.343-16.536-3.7-24.73l1.49-1.49a8.877 8.877 0 01-1.94.208 9.192 9.192 0 01-4.771-1.307 9.265 9.265 0 01-4.78 1.307 9.14 9.14 0 01-3.797-.808l4.721 4.73c-.502 7.351-1.702 14.773-3.567 22.09h-43.85v1.665h78.274z"/>
    <path d="M40.62 50.232a7.731 7.731 0 00-.383 2.398c0 6.517 7.546 9.954 12.458 6.012 2.8 2.247 6.796 2.197 9.55 0 2.8 2.247 6.798 2.197 9.552 0 4.44 3.585 11.394 1.103 12.357-4.78 5.585-2.209 6.527-9.776 1.682-13.315 1.646-3.924-.26-8.564-4.346-10.125.519-4.205-2.546-8.038-6.737-8.527.05-5.691-6.05-9.472-11.125-6.895-1.166-2.873-3.805-4.68-6.995-4.68-3.564 0-7.344 2.415-7.727 6.903-4.12.1-6.889 4.164-5.738 7.92-5.002 1.537-6.996 7.66-3.888 11.857-4.782 3.38-4.044 10.84 1.34 13.232zM41.81 68.683h-1.665v1.438h-1.439v1.665h1.439v1.438h1.665v-1.438h1.438v-1.665H41.81zM36.144 58.642v-1.438h-1.666v1.438h-1.437v1.666h1.437v1.438h1.666v-1.438h1.438v-1.666zM30.137 28.59c.836-.911 1.56-1.706 1.082-2.59a1.308 1.308 0 00-1.549-.616c-3.13 1.033-6.644.317-9.118-2.157a8.817 8.817 0 01-2.148-9.11c.125-.4.066-.824-.175-1.157-.391-.541-1.2-.691-1.757-.317-5.758 3.896-6.293 12.02-1.207 16.638 4.254 3.847 11 3.523 14.872-.691zM29.1 47.846h-1.665v1.438h-1.438v1.665h1.438v1.439H29.1v-1.439h1.439v-1.665h-1.44zM21.19 70.954h-1.665v1.438h-1.438v1.665h1.438v1.438h1.665v-1.438h1.439v-1.665H21.19zM14.076 48.215v-1.438H12.41v1.438h-1.438v1.666h1.438v1.437h1.666v-1.437h1.437v-1.666zM27.173 36.446h-1.666v1.438H24.07v1.665h1.437v1.438h1.666V39.55h1.438v-1.665h-1.438zM29.444 14.695v-1.438h-1.665v1.438H26.34v1.666h1.439v1.438h1.665V16.36h1.438v-1.666zM85.286 14.036v-1.438h-1.665v1.438h-1.439v1.665h1.439v1.438h1.665v-1.438h1.438v-1.665zM86.156 62.658H84.49v1.438h-1.438v1.666h1.438v1.437h1.666v-1.437h1.437v-1.666h-1.437zM77.394 72.283H75.73v1.438h-1.438v1.665h1.438v1.438h1.665v-1.438h1.439v-1.665h-1.439z"/>
  </g>
</svg>
