<svg xmlns="http://www.w3.org/2000/svg" height="100" width="100">
  <g fill="#fff">
    <path d="M10.075 31.297v52.235h28.698V28.497h-25.9a2.808 2.808 0 00-2.798 2.8zm16.954 3.27h6.585v4.195H27.03zm0 9.671h6.585v4.199H27.03zm0 9.677h6.585v4.198H27.03zm0 9.677h6.585v4.196H27.03zm0 9.674h6.585v4.198H27.03zm-11.797-38.7h6.59v4.196h-6.59zm0 9.672h6.59v4.199h-6.59zm0 9.677h6.59v4.198h-6.59zm0 9.677h6.59v4.196h-6.59zm0 9.674h6.59v4.198h-6.59zM87.205 15.744H44.553a2.804 2.804 0 00-2.796 2.798V83.53h13.944V69.662h20.353v13.87H90V18.545a2.804 2.804 0 00-2.795-2.8zM55.4 61.38h-7.604V48.185H55.4zm0-23.487h-7.604v-13.2H55.4zM69.683 61.38H62.08V48.185h7.604zm0-23.487H62.08v-13.2h7.604zM83.964 61.38H76.36V48.185h7.604zm0-23.487H76.36v-13.2h7.604z"/>
  </g>
</svg>
