<svg xmlns="http://www.w3.org/2000/svg" height="100" width="100">
  <g fill="#fff">
    <path d="M9.832 62.281V60.35c.084-.252.084-.588.168-.84 1.008-5.292 3.864-9.073 8.989-10.921.42-.168.924-.336 1.344-.42-2.184-4.2-1.764-8.065 1.512-11.51 3.948-3.275 7.98-3.191 12.181-.42.168-.42.336-.84.588-1.175 2.52-4.957 7.141-8.485 12.601-9.661.757-.168 1.597-.252 2.353-.336h2.268c.336.084.672.084 1.092.168 4.2.42 8.065 2.352 10.921 5.376a17.734 17.734 0 015.125 11.425c0 .252-.084.42-.337.504a14.459 14.459 0 00-5.88 4.62.404.404 0 01-.504.169c-4.537-1.176-9.157 1.512-10.333 5.964a10.805 10.805 0 00-.252 3.277c.084.168-.084.42-.252.504-3.192 1.932-5.293 5.292-5.377 9.073-.252 3.276 1.008 6.468 3.36 8.652.085.084.169.168.337.252H23.357c-1.008 0-1.932-.084-2.94-.336-5.04-1.176-8.989-5.04-10.165-10.08-.168-.757-.336-1.513-.42-2.353z"/>
    <path d="M55.364 58.5c-1.512-2.435-1.008-5.544 1.176-7.392 2.1-1.68 5.04-1.596 7.141.084.168-.42.42-.84.588-1.176 1.68-3.108 4.789-5.208 8.233-5.628 5.796-.84 11.173 2.94 12.433 8.652.168.924.252 1.933.168 2.94 0 .253.168.505.42.673 4.789 2.436 6.637 8.317 4.2 13.105-.588 1.176-1.428 2.184-2.352 3.024-1.764 1.512-3.948 2.352-6.3 2.352H57.38c-4.621.084-8.401-3.612-8.485-8.232-.084-3.697 2.352-7.057 5.964-8.15.168-.167.336-.251.504-.251z"/>
  </g>
</svg>
