<svg xmlns="http://www.w3.org/2000/svg" height="100" width="100" id="svg14" xml:space="preserve" y="0" x="0" version="1.1">
    <style id="style2" type="text/css"></style>
    <path id="path854" d="M11.012 32.262a1.5 1.5 0 00-.492.078 1.5 1.5 0 00-.94 1.902s2.324 6.461 9.057 6.461c4.15 0 6.657-2.336 8.086-4.185 1.303 1.871 3.624 4.185 7.715 4.185 4.15 0 6.657-2.338 8.085-4.187 1.304 1.872 3.622 4.187 7.713 4.187 4.15 0 6.657-2.337 8.086-4.185 1.304 1.871 3.625 4.185 7.715 4.185 4.15 0 6.658-2.338 8.086-4.187 1.303 1.872 3.622 4.187 7.713 4.187 6.733 0 9.539-6.344 9.539-6.344a1.5 1.5 0 00-.775-1.972 1.5 1.5 0 00-1.975.775s-1.935 4.541-6.79 4.541c-4.853 0-6.214-4.424-6.214-4.424a1.5 1.5 0 00-2.797-.117s-1.933 4.541-6.787 4.541-6.217-4.424-6.217-4.424a1.5 1.5 0 00-2.795-.117s-1.935 4.541-6.789 4.541c-4.854 0-6.215-4.424-6.215-4.424a1.5 1.5 0 00-2.796-.117s-1.934 4.541-6.788 4.541c-4.853 0-6.216-4.424-6.216-4.424a1.5 1.5 0 00-2.797-.117s-1.933 4.541-6.787 4.541-6.217-4.424-6.217-4.424a1.5 1.5 0 00-1.408-1.017z" style="line-height:normal;font-variant-ligatures:normal;font-variant-position:normal;font-variant-caps:normal;font-variant-numeric:normal;font-variant-alternates:normal;font-variant-east-asian:normal;font-feature-settings:normal;font-variation-settings:normal;text-indent:0;text-align:start;text-decoration-line:none;text-decoration-style:solid;text-decoration-color:#000;text-transform:none;text-orientation:mixed;white-space:normal;shape-padding:0;shape-margin:0;inline-size:0;isolation:auto;mix-blend-mode:normal;solid-color:#000;solid-opacity:1" color="#000" font-style="normal" font-variant="normal" font-weight="400" font-stretch="normal" font-size="medium" font-family="sans-serif" text-decoration="none" letter-spacing="normal" word-spacing="normal" writing-mode="lr-tb" direction="ltr" dominant-baseline="auto" baseline-shift="baseline" text-anchor="start" clip-rule="nonzero" display="inline" overflow="visible" visibility="visible" color-interpolation="sRGB" color-interpolation-filters="linearRGB" vector-effect="none" fill="#fff" fill-opacity=".921" fill-rule="nonzero" stroke="none" stroke-width="3" stroke-linecap="round" stroke-linejoin="round" stroke-miterlimit="10" stroke-dasharray="none" stroke-dashoffset="0" stroke-opacity="1" color-rendering="auto" image-rendering="auto" shape-rendering="auto" text-rendering="auto" stop-color="#000" stop-opacity="1" opacity="1"/>
    <path id="path858" d="M11.012 45.78a1.5 1.5 0 00-.492.077 1.5 1.5 0 00-.94 1.903s2.324 6.46 9.057 6.46c4.15 0 6.657-2.336 8.086-4.185 1.303 1.872 3.624 4.186 7.715 4.186 4.15 0 6.657-2.339 8.085-4.188 1.304 1.872 3.622 4.188 7.713 4.188 4.15 0 6.657-2.337 8.086-4.186 1.304 1.872 3.625 4.186 7.715 4.186 4.15 0 6.658-2.339 8.086-4.188 1.303 1.872 3.622 4.188 7.713 4.188 6.733 0 9.539-6.344 9.539-6.344a1.5 1.5 0 00-.775-1.973 1.5 1.5 0 00-1.975.776s-1.935 4.54-6.79 4.54c-4.853 0-6.214-4.423-6.214-4.423a1.5 1.5 0 00-2.797-.117s-1.933 4.54-6.787 4.54-6.217-4.423-6.217-4.423a1.5 1.5 0 00-2.795-.117s-1.935 4.54-6.789 4.54c-4.854 0-6.215-4.423-6.215-4.423a1.5 1.5 0 00-2.796-.117s-1.934 4.54-6.788 4.54c-4.853 0-6.216-4.423-6.216-4.423a1.5 1.5 0 00-2.797-.117s-1.933 4.54-6.787 4.54-6.217-4.423-6.217-4.423a1.5 1.5 0 00-1.408-1.018z" style="line-height:normal;font-variant-ligatures:normal;font-variant-position:normal;font-variant-caps:normal;font-variant-numeric:normal;font-variant-alternates:normal;font-variant-east-asian:normal;font-feature-settings:normal;font-variation-settings:normal;text-indent:0;text-align:start;text-decoration-line:none;text-decoration-style:solid;text-decoration-color:#000;text-transform:none;text-orientation:mixed;white-space:normal;shape-padding:0;shape-margin:0;inline-size:0;isolation:auto;mix-blend-mode:normal;solid-color:#000;solid-opacity:1" color="#000" font-style="normal" font-variant="normal" font-weight="400" font-stretch="normal" font-size="medium" font-family="sans-serif" text-decoration="none" letter-spacing="normal" word-spacing="normal" writing-mode="lr-tb" direction="ltr" dominant-baseline="auto" baseline-shift="baseline" text-anchor="start" clip-rule="nonzero" display="inline" overflow="visible" visibility="visible" color-interpolation="sRGB" color-interpolation-filters="linearRGB" vector-effect="none" fill="#fff" fill-opacity=".921" fill-rule="nonzero" stroke="none" stroke-width="3" stroke-linecap="round" stroke-linejoin="round" stroke-miterlimit="10" stroke-dasharray="none" stroke-dashoffset="0" stroke-opacity="1" color-rendering="auto" image-rendering="auto" shape-rendering="auto" text-rendering="auto" stop-color="#000" stop-opacity="1" opacity="1"/>
    <path id="path850" d="M11.012 59.297a1.5 1.5 0 00-.492.08 1.5 1.5 0 00-.94 1.9s2.324 6.461 9.057 6.461c4.15 0 6.657-2.336 8.086-4.185 1.303 1.872 3.624 4.185 7.715 4.185 4.15 0 6.657-2.338 8.085-4.187 1.304 1.872 3.622 4.187 7.713 4.187 4.15 0 6.657-2.336 8.086-4.185 1.304 1.872 3.625 4.185 7.715 4.185 4.15 0 6.658-2.338 8.086-4.187 1.303 1.872 3.622 4.187 7.713 4.187 6.733 0 9.539-6.342 9.539-6.342a1.5 1.5 0 00-.775-1.974 1.5 1.5 0 00-1.975.775s-1.935 4.541-6.79 4.541c-4.853 0-6.214-4.422-6.214-4.422a1.5 1.5 0 00-2.797-.119s-1.933 4.541-6.787 4.541-6.217-4.422-6.217-4.422a1.5 1.5 0 00-2.795-.119s-1.935 4.541-6.789 4.541c-4.854 0-6.215-4.422-6.215-4.422a1.5 1.5 0 00-2.796-.119s-1.934 4.541-6.788 4.541c-4.853 0-6.216-4.422-6.216-4.422a1.5 1.5 0 00-2.797-.119s-1.933 4.541-6.787 4.541-6.217-4.422-6.217-4.422a1.5 1.5 0 00-1.408-1.02z" style="line-height:normal;font-variant-ligatures:normal;font-variant-position:normal;font-variant-caps:normal;font-variant-numeric:normal;font-variant-alternates:normal;font-variant-east-asian:normal;font-feature-settings:normal;font-variation-settings:normal;text-indent:0;text-align:start;text-decoration-line:none;text-decoration-style:solid;text-decoration-color:#000;text-transform:none;text-orientation:mixed;white-space:normal;shape-padding:0;shape-margin:0;inline-size:0;isolation:auto;mix-blend-mode:normal;solid-color:#000;solid-opacity:1" color="#000" font-style="normal" font-variant="normal" font-weight="400" font-stretch="normal" font-size="medium" font-family="sans-serif" text-decoration="none" letter-spacing="normal" word-spacing="normal" writing-mode="lr-tb" direction="ltr" dominant-baseline="auto" baseline-shift="baseline" text-anchor="start" clip-rule="nonzero" display="inline" overflow="visible" visibility="visible" color-interpolation="sRGB" color-interpolation-filters="linearRGB" vector-effect="none" fill="#fff" fill-opacity=".921" fill-rule="nonzero" stroke="none" stroke-width="3" stroke-linecap="round" stroke-linejoin="round" stroke-miterlimit="10" stroke-dasharray="none" stroke-dashoffset="0" stroke-opacity="1" color-rendering="auto" image-rendering="auto" shape-rendering="auto" text-rendering="auto" stop-color="#000" stop-opacity="1" opacity="1"/>
</svg>
