<svg xmlns="http://www.w3.org/2000/svg" height="100" width="100">
  <g data-name="Mail Box" fill="#fff">
    <path d="M75.714 21.579c-10.514 0-14 10.085-14.142 10.514A2.864 2.864 0 0067 33.92a9.828 9.828 0 018.714-6.628c5.714 0 8.571 2.857 8.571 8.571a8.228 8.228 0 01-7.77 8.571H12.858a2.857 2.857 0 000 5.715h63.57a13.942 13.942 0 0013.57-14.286A13.228 13.228 0 0075.714 21.58zM62.572 55.864h-44a2.857 2.857 0 000 5.714h44c2.857 0 4.457 2.857 4.485 5.714a5.714 5.714 0 01-1.2 4.2 7.628 7.628 0 01-5.428 1.485 7.4 7.4 0 01-4.543-1.542 2.857 2.857 0 10-3.457 4.428 13.057 13.057 0 008.028 2.857A12.685 12.685 0 0070 75.52a11.114 11.114 0 002.857-8.228 10.685 10.685 0 00-10.285-11.428z"/>
    <path d="M21.43 38.721H50a2.857 2.857 0 000-5.714H21.43a2.857 2.857 0 000 5.714z"/>
  </g>
</svg>
