<svg xmlns="http://www.w3.org/2000/svg" height="100" width="100">
  <path d="M66.748 18.878c-.716 0-1.433.04-2.133.122-4.341-5.36-10.972-8.78-18.4-8.78-12.128 0-22.122 9.114-23.507 20.868-5.612 1.653-9.701 6.833-9.701 12.975 0 7.47 6.052 13.522 13.521 13.522h9.7c2.249 0 3.569 1.75 2.95 3.918l-1.125 3.869c-.619 2.157.701 3.918 2.949 3.918h.961c2.248 0 3.242 1.621 2.224 3.626l-7.885 15.458c-1.026 2.005-.545 2.362 1.067.791l24.37-23.671c1.613-1.564 1.092-2.834-1.156-2.834h-2.052c-1.442 0-2.328-1.131-1.995-2.532.343-1.401 1.783-2.54 3.224-2.54h6.99c10.695 0 19.354-8.668 19.354-19.355-.002-10.689-8.66-19.355-19.356-19.355z" stroke-width=".815" fill="#fff"/>
</svg>
