<svg xmlns="http://www.w3.org/2000/svg" height="100" width="100">
  <g transform="matrix(1.84311 0 0 1.84311 3.639 3.905)" fill="#fff">
    <path d="M39.803 44.738l-6.146-7.543H30.45c.026.041.05.084.081.123l.88 1.079H18.59l.879-1.079c.032-.039.055-.082.081-.123h-3.205l-6.147 7.543a1.25 1.25 0 101.939 1.579l1.661-2.04h22.406l1.662 2.04a1.246 1.246 0 001.759.179 1.25 1.25 0 00.178-1.758zm-24.783-1.96l2.349-2.882h15.265l2.349 2.882zM12.594 35.876h24.813a2.5 2.5 0 002.5-2.5V10.112a2.5 2.5 0 00-2.5-2.5H12.594a2.5 2.5 0 00-2.5 2.5v23.264a2.5 2.5 0 002.5 2.5zm21.751-3.426a2.363 2.363 0 110-4.728 2.364 2.364 0 010 4.728zM19.771 9.722h10.458v1.589H19.771zm-6.479 6.5a2.5 2.5 0 012.5-2.5h18.416a2.5 2.5 0 012.5 2.5v4.5a2.5 2.5 0 01-2.5 2.5H15.792a2.5 2.5 0 01-2.5-2.5zm2.364 11.5a2.364 2.364 0 110 4.728 2.364 2.364 0 010-4.728z"/>
    <circle cx="22.542" cy="5.097" r="1.875"/>
    <circle cx="27.459" cy="5.097" r="1.875"/>
  </g>
</svg>
