<svg xmlns="http://www.w3.org/2000/svg" height="100" width="100">
  <g fill="#fff">
    <path d="M24.912 38.119v2.12c0 5.72 4.654 10.374 10.374 10.374h.605v12.422a3.364 3.364 0 003.36 3.36 3.364 3.364 0 003.36-3.36V38.12h7.63c4.71 0 8.528-3.908 8.528-8.73 0-2.99-2.368-5.414-5.288-5.414a3.968 3.968 0 01-3.048-1.44l-1.635-1.96c-2.362-2.835-5.82-4.468-9.459-4.468a8.972 8.972 0 01-4.771-1.378l-.386-.242a8.972 8.972 0 00-4.77-1.378c-3.482 0-6.66 2.027-8.195 5.225l-2.001 4.17a2.566 2.566 0 01-2.308 1.47c-3.815 0-6.908 3.167-6.908 7.073 0 3.906 3.093 7.072 6.908 7.072zm15.683 24.917a1.344 1.344 0 01-2.688 0V48.597h-2.62a8.359 8.359 0 01-8.36-8.358V33.16a1.344 1.344 0 112.688 0V40.24a5.67 5.67 0 005.671 5.67h2.621V31.472a1.344 1.344 0 012.688 0v6.648zM35.89 38.119v5.775h-.605a3.66 3.66 0 01-3.655-3.655v-2.12h4.26zM77.699 52.065c-.48-.209-.973-.393-1.463-.577-1.59-.6-5.38-2.265-5.781-5.647 0 0-.426-2.813 3.565-4.26 0 0 6.84-2.224 7.924-6.14 0 0 1.585-4.359-9.112-8.024l-.585-.234c-.598-.239-1.101-.708-1.295-1.323a2.1 2.1 0 01.572-2.19c.273-.253.622-.55 1.03-.848.582-.425.281-1.348-.44-1.348h-.695c-1.17 0-2.177.221-3.108.653-2.245 1.042-5.637 3.284-2.437 6.382.605.586 1.324 1.042 2.083 1.409l2.732 1.32 1.446.734c.92.468 1.23 1.692.555 2.473-.36.417-.954.827-1.914 1.148-.004.002-.288.086-.627.164-1.588.37-5.033 1.348-7.676 3.174-3.395 2.346-4.638 6.859-2.886 10.595.654 1.398 1.744 2.876 3.535 4.2 1.422 1.05 2.498 2.551 2.776 4.298.33 2.072-.236 4.86-3.698 7.854-.38.33-.784.63-1.19.928a514.003 514.003 0 01-16.055 11.25c-4.65 3.122-2.45 10.376 3.15 10.376H68.09c10.33 0 19.477-7.117 21.538-17.238 1.392-6.831-.621-14.213-11.928-19.13zm-14.005-7.45c.19-.596.907-.835 1.431-.494l-.1-.065.155.1.008.006.681.444-.681-.444c.367.24.517.695.382 1.114-.33 1.027-.472 3.035 2.192 5.113.397.31.498.87.22 1.29l-.053.081a.961.961 0 01-1.385.235c-3.615-2.804-3.35-5.806-2.85-7.38zm-4.925 32.87a1.229 1.229 0 110-2.457 1.229 1.229 0 010 2.457zM70 76.425c-1.41 1.36-4.755 4.402-8.541 6.55a.964.964 0 01-1.335-.389l-.045-.086a.953.953 0 01.368-1.268c3.568-2.024 6.81-4.97 8.152-6.26a.956.956 0 011.328.006l.072.07A.958.958 0 0170 76.424zm.477-8.672c-1.918 3.044-5.293 5.631-6.86 6.734a.96.96 0 01-1.364-.269l-.054-.084a.955.955 0 01.252-1.295c1.44-1.018 4.6-3.433 6.31-6.144a.956.956 0 011.248-.346l.087.045c.498.256.68.885.381 1.359zm11.72-.226c-1.199 6.922-6.962 12.068-9.121 13.782a.958.958 0 01-1.378-.204l-.06-.085a.955.955 0 01.181-1.295c1.95-1.566 7.327-6.377 8.395-12.566a.95.95 0 011.038-.775l.097.01c.558.058.944.58.848 1.133zm-.725-6.047l-.1.022a.966.966 0 01-1.109-.625 5.331 5.331 0 00-2.843-3.044.969.969 0 01-.56-1.086l.02-.094c.13-.599.776-.919 1.336-.67 1.202.536 3.064 1.74 3.962 4.258.192.535-.151 1.117-.706 1.24zM34.37 74.022c-.293-1.447-1.385-4-5.473-3.428 0 0-.734-3.961-4.426-4.895-2.603-.657-5.363.587-6.675 2.93-.77 1.374-1.25 3.274-.64 5.752a.778.778 0 00.76.579h15.678a.787.787 0 00.775-.938z"/>
    <path d="M56.888 59.782a.49.49 0 00.478-.364c.385-1.56.082-2.756-.403-3.62-.825-1.475-2.562-2.259-4.2-1.844-2.325.587-2.787 3.08-2.787 3.08-2.573-.36-3.26 1.247-3.444 2.158a.495.495 0 00.488.59z"/>
  </g>
</svg>
