<svg xmlns="http://www.w3.org/2000/svg" height="100" width="100">
  <g fill="#fff">
    <path d="M76.278 68.54l6.237-9.816L90 68.12l-3.904 3.11-3.123-3.917-6.454 10.154-8.166-11.434L60.81 79.75l-7.124-18.57-7.182 27.487-7.762-24.58-5.59 16.435-7.865-12.905-4.908 7.18-10.725-11.76 3.69-3.364 6.473 7.099 5.71-8.352 6.336 10.392 7.054-20.75 7.134 22.59 6.731-25.765L61.62 67.92l6.185-11.246z"/>
    <g style="line-height:1.25;-inkscape-font-specification:Quicksand">
      <path d="M61.282 12.64q.96 0 1.6.72.68.68.68 1.76 0 .36-.16.92l-6.12 16.48q-.24.72-.88 1.16-.6.4-1.32.4l-.32-.04q-1.36-.08-2.04-1.52l-3.4-9.84-3.24 9.84q-.68 1.44-2.04 1.52l-.32.04q-.72 0-1.36-.4-.6-.44-.84-1.16l-6.12-16.48q-.16-.44-.16-.92 0-1 .64-1.72.68-.76 1.76-.76.8 0 1.36.4.6.36.84 1.12l4.32 11.72 3.16-8.56q.64-1.48 2.2-1.48.84 0 1.28.36.48.36.8 1.12l3.08 8.36 4.28-11.52q.24-.76.84-1.12.6-.4 1.48-.4z" style="-inkscape-font-specification:'Quicksand Bold';text-align:center" font-weight="700" text-anchor="middle" aria-label="w" font-size="40" font-family="Quicksand"/>
    </g>
  </g>
</svg>
