<svg xmlns="http://www.w3.org/2000/svg" height="100" width="100">
  <g fill="#fff">
    <path d="M34 10h32v8H34zM10 34h80v8H10zM66.8 42h1.6v16h-1.6zM49.2 42h1.6v16h-1.6z"/>
    <path d="M45.2 50v40l9.6-5V50zM62.8 50v36.8l9.6-4.6V50zM84.4 42H86v16h-1.6z"/>
    <path d="M80.4 50v32l9.6-4V50zM14 42h1.6v16H14z"/>
    <path d="M10 50v28.8l9.6-3.6V50zM31.6 42h1.6v16h-1.6z"/>
    <path d="M27.6 50v25.6l9.6-3.2V50zM49.205 17.565l1.45-.677 9.46 20.287-1.45.676z"/>
    <path d="M49.35 16.884l1.451.676-9.46 20.287-1.45-.677z"/>
  </g>
</svg>
