<svg xmlns="http://www.w3.org/2000/svg" height="100" width="100">
  <g fill="#fff">
    <path d="M21.412 90.034c0-6.206 10.581-11.238 23.632-11.238 13.052 0 23.631 5.034 23.631 11.238"/>
    <path d="M44.517 66.54c-1.816-13.802 1.642-26.66 8.745-35.416-1.377.807 1.104-2.383-.225-1.494-6.728 4.484-14.062 15.908-15.842 25.107-2.004 10.35-1.504 21.933 2.99 29.89l15.09 3.584c-4.135-6.092-9.668-13.369-10.758-21.67z"/>
    <path d="M51.69 32.618c4.967 6.54 14.078 20.007 7.797 24.78a13.809 13.809 0 01-2.902 1.676 14.204 14.204 0 007.962-2.89c6.286-4.771 7.517-13.74 2.743-20.023-3.657-4.819-9.776-6.651-15.267-5.1 3.747.54-2.854-1.763-.333 1.557z"/>
    <path d="M56.919 31.57c9.265-1.343 19.826 5.23 18.95 13.075a13.754 13.754 0 01-.79 3.256 14.214 14.214 0 003.397-7.763c.879-7.842-4.763-14.915-12.61-15.792-6.014-.672-11.565 2.493-14.221 7.542 2.978-2.345 1.152.281 5.274-.317z"/>
    <path d="M50.348 32.02c-8.199.403-22.933 2.772-22.545 10.657.055 1.146.269 2.246.585 3.298a14.169 14.169 0 01-2.913-7.953c-.388-7.882 5.69-14.595 13.571-14.978 6.043-.305 11.105 2.708 13.45 7.908-2.832-2.364 2.013.862-2.148 1.067z"/>
    <path d="M48.253 26.639c-5.203-6.35-13.61-12.669-19.715-7.667a13.804 13.804 0 00-2.306 2.436 14.24 14.24 0 014.66-7.078c6.103-5.002 15.109-4.112 20.113 1.99 3.838 4.68 4.2 11.06 1.412 16.04-2.37-3.032-1.52-2.498-4.164-5.721z"/>
    <path d="M53.98 28.8s-.574-2.501-.2-6.045c.421-3.97 1.623-9.202-1.927-12.755-.001 0 16.316 5.99 2.126 18.8z"/>
    <path d="M53.92 29.171s2.639-1.038 5.99-3.278c3.16-2.107 6.898-5.46 11.353-4.268-.001 0-13.347-11.138-17.342 7.546z"/>
  </g>
</svg>
