<?xml version="1.0" encoding="UTF-8" standalone="no"?>
<svg xmlns:dc="http://purl.org/dc/elements/1.1/"
  xmlns:cc="http://creativecommons.org/ns#"
  xmlns:rdf="http://www.w3.org/1999/02/22-rdf-syntax-ns#"
  xmlns:svg="http://www.w3.org/2000/svg"
  xmlns="http://www.w3.org/2000/svg" width="156" height="156" version="1.1" id="svg186">
  <metadata id="metadata192">
    <rdf:RDF>
      <cc:Work rdf:about="">
        <dc:format>image/svg+xml</dc:format>
        <dc:type rdf:resource="http://purl.org/dc/dcmitype/StillImage" />
        <dc:title></dc:title>
      </cc:Work>
    </rdf:RDF>
  </metadata>
  <defs id="defs190" />
  <rect style="fill:#333333;fill-opacity:0.80000001;stroke:#ffffff;stroke-width:0;stroke-miterlimit:4;stroke-dasharray:none;stroke-opacity:0.920988" id="rect1021" width="156" height="156" x="5e-07" y="5e-07" rx="19.5" ry="19.5" />
  <circle cx="78" cy="50" r="4" fill="#fff" id="circle120" style="fill:#ffffff" />
  <circle cx="90" cy="50" r="4" fill="#fff" id="circle122" style="fill:#ffffff" />
  <circle cx="102" cy="50" r="4" fill="#fff" id="circle124" style="fill:#ffffff" />
  <circle cx="114" cy="50" r="4" fill="#fff" id="circle126" style="fill:#ffffff" />
  <circle cx="66" cy="50" r="4" fill="#fff" id="circle128" style="fill:#ffffff" />
  <circle cx="54" cy="50" r="4" fill="#fff" id="circle130" style="fill:#ffffff" />
  <circle cx="42" cy="50" r="4" fill="#fff" id="circle132" style="fill:#ffffff" />
  <ellipse cx="78.5" cy="26.5" rx="3.96" ry="3.5" fill="#fff" id="ellipse134" style="fill:#ffffff" />
  <ellipse cx="90.379997" cy="26.5" rx="3.96" ry="3.5" fill="#fff" id="ellipse136" style="fill:#ffffff" />
  <ellipse cx="66.619995" cy="26.5" rx="3.96" ry="3.5" fill="#fff" id="ellipse138" style="fill:#ffffff" />
  <circle cx="84" cy="38" r="4" fill="#fff" id="circle140" style="fill:#ffffff" />
  <circle cx="96" cy="38" r="4" fill="#fff" id="circle142" style="fill:#ffffff" />
  <circle cx="108" cy="38" r="4" fill="#fff" id="circle144" style="fill:#ffffff" />
  <circle cx="72" cy="38" r="4" fill="#fff" id="circle146" style="fill:#ffffff" />
  <circle cx="60" cy="38" r="4" fill="#fff" id="circle148" style="fill:#ffffff" />
  <circle cx="48" cy="38" r="4" fill="#fff" id="circle150" style="fill:#ffffff" />
  <circle cx="78" cy="130" r="4" fill="#fff" id="circle152" style="fill:#ffffff" />
  <circle cx="90" cy="130" r="4" fill="#fff" id="circle154" style="fill:#ffffff" />
  <circle cx="66" cy="130" r="4" fill="#fff" id="circle156" style="fill:#ffffff" />
  <circle cx="78" cy="106" r="4" fill="#fff" id="circle158" style="fill:#ffffff" />
  <circle cx="90" cy="106" r="4" fill="#fff" id="circle160" style="fill:#ffffff" />
  <circle cx="102" cy="106" r="4" fill="#fff" id="circle162" style="fill:#ffffff" />
  <circle cx="114" cy="106" r="4" fill="#fff" id="circle164" style="fill:#ffffff" />
  <circle cx="66" cy="106" r="4" fill="#fff" id="circle166" style="fill:#ffffff" />
  <circle cx="54" cy="106" r="4" fill="#fff" id="circle168" style="fill:#ffffff" />
  <circle cx="42" cy="106" r="4" fill="#fff" id="circle170" style="fill:#ffffff" />
  <circle cx="84" cy="118" r="4" fill="#fff" id="circle172" style="fill:#ffffff" />
  <circle cx="96" cy="118" r="4" fill="#fff" id="circle174" style="fill:#ffffff" />
  <circle cx="108" cy="118" r="4" fill="#fff" id="circle176" style="fill:#ffffff" />
  <circle cx="72" cy="118" r="4" fill="#fff" id="circle178" style="fill:#ffffff" />
  <circle cx="60" cy="118" r="4" fill="#fff" id="circle180" style="fill:#ffffff" />
  <circle cx="48" cy="118" r="4" fill="#fff" id="circle182" style="fill:#ffffff" />
  <path d="m 131.87,78 a 4,4 0 0 0 -7,-1.56 13,13 0 0 1 -7.46,1.56 c -3,-0.31 -4.73,-1.69 -6.71,-3.28 -2.15,-1.72 -4.8,-3.85 -8.85,-3.72 -6.34,0.23 -10,5.83 -12.7,9.92 a 29.45,29.45 0 0 1 -2.78,3.8 c -1,-1.36 -2.28,-5.11 -3.06,-7.46 -2.07,-6.21 -4.2,-12.63 -9.89,-13.23 -4.87,-0.51 -7.69,3.76 -10.16,7.53 -2,3.08 -4.12,6.27 -6.56,6.45 -1,0.09 -2,-0.71 -4,-2.52 C 50.11,73.18 46.62,70 41,70 34.22,70 30.42,71.46 25.33,76 a 4.0160802,4.0160802 0 0 0 5.34,6 c 3.44,-3.08 5.21,-4 10.33,-4 2.41,0 4,1.29 6.29,3.41 2.29,2.12 5.42,4.92 10,4.58 6.36,-0.48 10,-6 12.64,-10 a 29.1,29.1 0 0 1 2.68,-3.68 c 1.05,1.37 2.36,5.3 3.1,7.52 C 77.78,86 79.92,92.4 85.59,93 a 7.56,7.56 0 0 0 0.76,0 c 4.42,0 7.1,-4.08 9.48,-7.7 1.92,-2.92 4.1,-6.23 6.31,-6.31 0.94,-0.05 1.73,0.51 3.55,2 2.34,1.88 5.54,4.45 10.89,5 6.88,0.72 12.84,-2.43 14.36,-4.19 a 4.15,4.15 0 0 0 0.93,-3.8 z" fill="#fff" id="path184" style="fill:#ffffff" />
</svg>
